<svg xmlns="http://www.w3.org/2000/svg" height="40" viewBox="0 -960 960 960" width="40"><path d="M358.941-160q-32.608 0-55.774-23.361Q280-206.723 280-239.528q0-32.805 23.322-55.972 23.321-23.167 56.07-23.167 32.275 0 55.775 23.362 23.5 23.361 23.5 56.166 0 32.806-23.559 55.972Q391.549-160 358.941-160Zm240.667 0q-32.608 0-55.775-23.361-23.166-23.362-23.166-56.167 0-32.805 23.321-55.972 23.322-23.167 56.071-23.167 32.274 0 55.774 23.362 23.5 23.361 23.5 56.166 0 32.806-23.559 55.972Q632.215-160 599.608-160ZM358.941-400.667q-32.608 0-55.774-22.559Q280-445.785 280-480.059q0-32.749 23.322-56.012 23.321-23.262 56.07-23.262 32.275 0 55.775 23.321 23.5 23.322 23.5 56.071 0 34.274-23.559 56.774t-56.167 22.5Zm240.667 0q-32.608 0-55.775-22.559-23.166-22.559-23.166-56.833 0-32.749 23.321-56.012 23.322-23.262 56.071-23.262 32.274 0 55.774 23.321 23.5 23.322 23.5 56.071 0 34.274-23.559 56.774t-56.166 22.5ZM358.941-641.333q-32.608 0-55.774-23.362Q280-688.056 280-720.861q0-32.806 23.322-55.972Q326.643-800 359.392-800q32.275 0 55.775 23.361 23.5 23.362 23.5 56.167 0 32.805-23.559 55.972t-56.167 23.167Zm240.667 0q-32.608 0-55.775-23.362-23.166-23.361-23.166-56.166 0-32.806 23.321-55.972Q567.31-800 600.059-800q32.274 0 55.774 23.361 23.5 23.362 23.5 56.167 0 32.805-23.559 55.972t-56.166 23.167Z"/></svg>